<?xml version="1.0" encoding="UTF-8"?>
<svg width="1024" height="1024" version="1.1" viewBox="0 0 270.93 270.93" xmlns="http://www.w3.org/2000/svg" xmlns:xlink="http://www.w3.org/1999/xlink"><defs><filter id="a" x="-.37121" y="-.35581" width="1.7285" height="1.6983" color-interpolation-filters="sRGB"><feFlood flood-color="rgb(0,0,0)" flood-opacity=".49804" result="flood"/><feComposite in="flood" in2="SourceGraphic" operator="in" result="composite1"/><feGaussianBlur in="composite1" result="blur" stdDeviation="14.9533"/><feOffset dx="-1.4" dy="-1.4" result="offset"/><feComposite in="SourceGraphic" in2="offset" result="fbSourceGraphic"/><feColorMatrix in="fbSourceGraphic" result="fbSourceGraphicAlpha" values="0 0 0 -1 0 0 0 0 -1 0 0 0 0 -1 0 0 0 0 1 0"/><feFlood flood-color="rgb(0,0,0)" flood-opacity=".49804" in="fbSourceGraphic" result="flood"/><feComposite in="flood" in2="fbSourceGraphic" operator="in" result="composite1"/><feGaussianBlur in="composite1" result="blur" stdDeviation="14.9533"/><feOffset dx="-1.4" dy="-1.4" result="offset"/><feComposite in="fbSourceGraphic" in2="offset" result="composite2"/></filter></defs><g transform="translate(0 -26.067)"><circle cx="135.47" cy="161.53" r="135.47" fill="#fff" stroke-width=".26458"/><path d="m133.42 38.287c-27.617 0.41427-55.048 10.319-76.381 27.897-18.981 15.479-33.206 36.73-40.16 60.225-6.2495 20.848-6.8977 43.367-1.6999 64.513 4.9066 20.254 15.019 39.234 29.173 54.539 15.436 16.79 35.609 29.195 57.599 35.277 22.229 6.2151 46.219 6.0933 68.342-0.53676 21.077-6.2366 40.453-18.185 55.371-34.341 15.125-16.253 25.772-36.651 30.336-58.387 4.4746-20.94 3.3834-43.048-3.2005-63.427-6.2087-19.416-17.305-37.257-32.051-51.341-15.957-15.342-36.105-26.305-57.692-31.243-9.7027-2.2464-19.678-3.3118-29.637-3.1757z" fill="#254441" stroke-width=".25373"/><path d="m180.9 75.754c-70.046 0.4766-134.63 60.77-138.08 131.07-1.5607 24.297 0.7566 50.51 14.449 71.279 57.19 40.29 144.69 27.552 187.33-28.159 33.051-40.8 41.739-101.43 17.181-148.51-11.312-14.342-30.684-17.417-47.059-22.46-11.092-2.4194-22.476-3.4275-33.822-3.2246z" fill="none"/><path d="m179.54 75.707c-27.617 0.41428-55.048 10.319-76.381 27.898-18.981 15.479-33.206 36.73-40.16 60.225-6.2494 20.848-6.8974 43.367-1.6996 64.513 3.9561 16.33 11.301 31.829 21.415 45.244 6.1993 2.916 12.637 5.3248 19.243 7.152 22.229 6.2151 46.219 6.0931 68.343-0.53692 21.077-6.2366 40.453-18.185 55.371-34.341 15.125-16.253 25.772-36.651 30.336-58.388 4.4746-20.94 3.3836-43.047-3.2003-63.427-4.2071-13.157-10.665-25.585-18.975-36.616-7.8854-3.7118-16.156-6.6033-24.655-8.5473-9.7027-2.2464-19.678-3.3121-29.637-3.176z" fill="#80cbc4" filter="url(#a)" stroke-width=".25373"/></g></svg>
