<?xml version="1.0" encoding="UTF-8"?>
<svg width="1024" height="1024" version="1.1" viewBox="0 0 1024 1024" xmlns="http://www.w3.org/2000/svg" xmlns:xlink="http://www.w3.org/1999/xlink"><defs><linearGradient id="a"><stop stop-color="#90e6ce" offset=".3537"/><stop stop-color="#57889b" offset="1"/></linearGradient><linearGradient id="c" x1="872.11" x2="972.69" y1="656.98" y2="1220.6" gradientUnits="userSpaceOnUse"><stop stop-color="#defdf5" offset="0"/><stop stop-color="#fff" offset="1"/></linearGradient><linearGradient id="b" x1="767.32" x2="729.84" y1="981.25" y2="100.06" gradientUnits="userSpaceOnUse"><stop stop-color="#d0fcfa" offset="0"/><stop stop-color="#b1fdf6" offset="1"/></linearGradient><linearGradient id="e" x1="431.65" x2="9.7365" y1="703.25" y2="30.211" gradientUnits="userSpaceOnUse" xlink:href="#a"/><filter id="h" x="-.036665" y="-.01821" width="1.0713" height="1.0354" color-interpolation-filters="sRGB"><feFlood flood-color="rgb(0,0,0)" flood-opacity=".2549" result="flood"/><feComposite in="flood" in2="SourceGraphic" operator="in" result="composite1"/><feGaussianBlur in="composite1" result="blur" stdDeviation="10"/><feOffset dx="-1.4" dy="-1.4" result="offset"/><feComposite in="SourceGraphic" in2="offset" result="composite2"/></filter><filter id="g" x="-.030593" y="-.020719" width="1.0595" height="1.0403" color-interpolation-filters="sRGB"><feFlood flood-color="rgb(0,0,0)" flood-opacity=".2549" result="flood"/><feComposite in="flood" in2="SourceGraphic" operator="in" result="composite1"/><feGaussianBlur in="composite1" result="blur" stdDeviation="10"/><feOffset dx="-1.4" dy="-1.4" result="offset"/><feComposite in="SourceGraphic" in2="offset" result="composite2"/></filter><linearGradient id="d" x1="556.33" x2="613.73" y1="271.35" y2="320.7" gradientUnits="userSpaceOnUse" xlink:href="#a"/><filter id="f" x="-.3175" y="-.3175" width="1.6175" height="1.6175" color-interpolation-filters="sRGB"><feFlood flood-color="rgb(0,0,0)" flood-opacity=".2549" result="flood"/><feComposite in="flood" in2="SourceGraphic" operator="in" result="composite1"/><feGaussianBlur in="composite1" result="blur" stdDeviation="10"/><feOffset dx="-1.4" dy="-1.4" result="offset"/><feComposite in="SourceGraphic" in2="offset" result="fbSourceGraphic"/><feColorMatrix in="fbSourceGraphic" result="fbSourceGraphicAlpha" values="0 0 0 -1 0 0 0 0 -1 0 0 0 0 -1 0 0 0 0 1 0"/><feMorphology in="fbSourceGraphic" operator="dilate" radius="7" result="result8"/><feComposite in="fbSourceGraphic" in2="result8" k1="0.5" k3="0.5" operator="arithmetic" result="result10"/><feTurbulence baseFrequency="0.07" numOctaves="3" result="result11" type="fractalNoise"/><feDisplacementMap in="result10" in2="result11" result="result12" scale="10" xChannelSelector="R"/><feComposite in="fbSourceGraphic" in2="result12" k1="0.25" k2="0.25" k3="0.75" operator="arithmetic" result="result13"/></filter><clipPath id="m"><circle cx="512" cy="512" r="512"/></clipPath><clipPath id="l"><circle cx="512" cy="512" r="512"/></clipPath><clipPath id="k"><circle cx="512" cy="512" r="512"/></clipPath><clipPath id="j"><circle cx="512" cy="512" r="512"/></clipPath><clipPath id="i"><circle cx="512" cy="512" r="512"/></clipPath></defs><g><circle cx="512" cy="512" r="512" clip-path="url(#i)" fill="#2a3551"/><path d="m516.22-25.194v574.56s-21.878 45.413-68.505 72.367c-55.725 32.213-67.797 121.16-67.797 121.16l14.864 301.14-542.23-11.891 155.77-1048.8z" clip-path="url(#j)" fill="url(#e)"/><path d="m516.27-25.225v129.49s190.03 77.356 191.71 311.11c1.6817 233.75-269.06 166.48-338.01 307.74-68.948 141.26 38.678 435.55 38.678 435.55l768.52-85.764-117.72-1140.2z" clip-path="url(#k)" fill="url(#b)" filter="url(#g)"/><path d="m795.51 78.481s136.75 613.58-209.28 810.97c-346.03 197.39 445.92 583.85 445.92 583.85l159.34-1337.7z" clip-path="url(#l)" fill="url(#c)" filter="url(#h)"/><circle transform="translate(13.08 -11.891)" cx="578.49" cy="295.13" r="40" clip-path="url(#m)" fill="url(#d)" filter="url(#f)"/></g></svg>
